<svg id="Component_10_1" data-name="Component 10 – 1" xmlns="http://www.w3.org/2000/svg" width="275.702" height="71.619" viewBox="0 0 275.702 71.619">
  <g id="Group_18" data-name="Group 18" transform="translate(33.569 0.145)">
    <g id="Group_17" data-name="Group 17">
      <path id="Path_39" data-name="Path 39" d="M554.873,280.927q-13.653,0-13.653-9.93v-1.241q0-9.929,13.653-9.929H585.9v7.447H554.873q-3.724,0-3.723,2.482V271q0,2.483,3.723,2.482h17.377q13.652,0,13.653,9.929v1.241q0,9.931-13.653,9.93H541.244l-.024-7.447h31.029q3.724,0,3.724-2.482v-1.241q0-2.482-3.724-2.482Z" transform="translate(-541.22 -259.827)" fill="#0067ac"/>
      <path id="Path_40" data-name="Path 40" d="M671.32,259.827h14.893q14.895,0,14.895,12.412V284.65q0,9.931-14.895,9.93H671.32q-14.895,0-14.895-12.412v-9.929Q656.425,259.826,671.32,259.827Zm14.893,7.447H671.32q-4.966,0-4.965,4.965v9.929q0,4.965,4.965,4.965h14.893q4.966,0,4.965-4.965v-9.929Q691.178,267.274,686.213,267.274Z" transform="translate(-607.227 -259.827)" fill="#0067ac"/>
      <path id="Path_41" data-name="Path 41" d="M806.384,259.827h9.929V284.65q0,9.931-14.894,9.93H786.525q-14.895,0-14.894-12.412V259.827h9.929v22.341q0,4.965,4.965,4.965h14.894q4.965,0,4.965-4.965Z" transform="translate(-673.234 -259.827)" fill="#0067ac"/>
    </g>
  </g>
  <g id="Group_19" data-name="Group 19" transform="translate(230.362 41.104)">
    <path id="Path_42" data-name="Path 42" d="M1007.105,357.287a2.053,2.053,0,0,0-1.67-.811,2.656,2.656,0,0,0-2.547,2.774,2.6,2.6,0,0,0,2.547,2.774,2.355,2.355,0,0,0,1.934-.935l.595.5a2.968,2.968,0,0,1-2.529,1.17,3.511,3.511,0,0,1,0-7.019,2.89,2.89,0,0,1,2.359,1.048Z" transform="translate(-1002.039 -355.739)" fill="#535353"/>
    <path id="Path_43" data-name="Path 43" d="M1018.505,356.136h.793v6.68h-.793Z" transform="translate(-1011.473 -355.966)" fill="#535353"/>
    <path id="Path_44" data-name="Path 44" d="M1025.387,356.136h.744l2.841,6.68h-.926l-.679-1.642h-3.339l-.689,1.642h-.9Zm.358,1.018h-.02l-1.386,3.284h2.726Z" transform="translate(-1013.729 -355.966)" fill="#535353"/>
    <path id="Path_45" data-name="Path 45" d="M1040.75,369.827a.566.566,0,1,1-1.132,0,.566.566,0,1,1,1.132,0Z" transform="translate(-1023.57 -363.487)" fill="#535353"/>
    <path id="Path_46" data-name="Path 46" d="M1052.106,356.136h.793v5.944h3.057v.737h-3.85Z" transform="translate(-1030.725 -355.966)" fill="#535353"/>
    <path id="Path_47" data-name="Path 47" d="M1064.633,356.872h-2.208v5.944h-.793v-5.944h-2.208v-.736h5.209Z" transform="translate(-1034.917 -355.966)" fill="#535353"/>
    <path id="Path_48" data-name="Path 48" d="M1073.526,356.136h2.567a3.341,3.341,0,0,1,0,6.68h-2.567Zm.793,5.944h1.51a2.605,2.605,0,1,0,0-5.207h-1.51Z" transform="translate(-1042.998 -355.966)" fill="#535353"/>
    <path id="Path_49" data-name="Path 49" d="M1091.328,356.136h.745l2.84,6.68h-.924l-.68-1.642h-3.339l-.689,1.642h-.9Zm.359,1.018h-.02l-1.386,3.284h2.726Z" transform="translate(-1051.511 -355.966)" fill="#535353"/>
    <path id="Path_50" data-name="Path 50" d="M1106.691,369.827a.566.566,0,1,1-1.131,0,.566.566,0,1,1,1.131,0Z" transform="translate(-1061.351 -363.487)" fill="#535353"/>
  </g>
  <path id="Path_51" data-name="Path 51" d="M536.2,269.622l0,0,0-.01S536.2,269.619,536.2,269.622Z" transform="translate(-504.777 -265.291)" fill="#fff"/>
  <path id="Path_52" data-name="Path 52" d="M511.3,297.5a4.731,4.731,0,0,0,1.37,1.432,1.085,1.085,0,0,0,1.143,1.379c.866,1.694.92,1.795,1.715,1.687a1.581,1.581,0,0,0,.181-.4c.263-.107.542.018.806-.05l.124,0c.178,0,.178,0,.617.012.167.249.167.249,1.275.249.34-.688.628-.624,1.262-.485a.381.381,0,0,0,.122-.011c.008-.006.536-.556.989-.183.071.936.071.936.451,1.1.5.023.977.049,1.447.076-.039.24-.077.48-.124.749a21.062,21.062,0,0,0-.689,2.187.563.563,0,0,0-.293.228.663.663,0,0,0,.3.257c.129.319,0,.716.3.981-.1.986.437,1.991-.082,2.966-.025.072-.052.143-.126.386a.8.8,0,0,0,.069.413l-1.5,2.471c-.936.642-.741,2.766-.732,2.783a2.5,2.5,0,0,0-.355,1c-.183.321-.369.637-.588,1-.01.02-1.089,2.8-1.238,3.224-.025.027-.047.056-.116.128-.344.176-.344.176-.429.436.032,0,.066,0-.01.13l-.14.162c.01.061.022.145.033.206a3.024,3.024,0,0,0,.583,0,3.367,3.367,0,0,1,.41-.131,1.689,1.689,0,0,0,.656-.05,17.76,17.76,0,0,1,1.926-1.532,33.315,33.315,0,0,1-22.2,8.418,33.694,33.694,0,0,1-7.216-.787l-.018-.016a.83.83,0,0,0-.117-.1l-.156-.175c-.029-.038-.067-.09-.1-.129a.37.37,0,0,0,.2-.038,1.59,1.59,0,0,1-.2-.269c.041-.029.093-.07.131-.1-.039-.1-.094-.244-.131-.35.03-.039.061-.1.088-.137-.027-.039-.057-.08-.2-.131l-.162-.032c-.517-.349-.517-.349-.581-.428a.45.45,0,0,1-.05-.174c.032-.038.073-.091.1-.131l.335,0a1.52,1.52,0,0,1-.211-.466,2.117,2.117,0,0,1-.071-.477l.173.017c.008-.049.016-.113.025-.162-.013-.023-.026-.045-.138-.139h-.029l-.022.009-.146.084c-.1-.073-.1-.073-.318-.376-.04-.072-.076-.146-.114-.218h.131a2.428,2.428,0,0,1,.327.158l.4-.005c-.025-.042-.057-.1-.082-.143-.009-.024-.021-.049-.067-.172.018-.187.018-.187-.177-.443-.026-.057-.048-.114-.075-.173a3.144,3.144,0,0,0,.39-.021c.049,0,.1,0,.244-.013.044-.019.108-.044.156-.064.116,0,.232,0,.392.006.047.008.109.021.159.028,0-.289.225-.482.327-.729l.032-.15c-.026-.08-.05-.159-.071-.241a.8.8,0,0,1-.16-.019c-.013-.052-.032-.1-.067-.228-.179-.227-.5-.294-.653-.552.1,0,.205,0,.336,0,1.115.258,1.377.321,1.464-.084.288-1.381.547-1.528.647-1.583a.636.636,0,0,1,.032.315l.163.034a4.467,4.467,0,0,0,.373-.755c.034-.3.436-.3.479-.592.063-.421-.4-.751-.21-1.194a8.1,8.1,0,0,1,.928-.957c.158,0,.316,0,.533-.01a2.526,2.526,0,0,0,.363-.341c.4,0,.793,0,1.193-.032a.676.676,0,0,1,.112-.3,1.2,1.2,0,0,0,.443-.644,2.235,2.235,0,0,0,.287-.19,1.272,1.272,0,0,1,.191-.7c.108-.066.108-.066.272-.926a.6.6,0,0,1,.064-.236,1.518,1.518,0,0,0,.184-.657,1.716,1.716,0,0,0-.016-.256c-.008-.048-.02-.111-.03-.159a1.519,1.519,0,0,0-.019-.332,1.309,1.309,0,0,1,.136-.664c.106-.032.106-.032.758-.867a.514.514,0,0,0,.439-.237l.779-1.077c.206-.389.206-.389.219-.6,0-.011-.046-1.171-.62-1.424l-.547-.006c-.865-.262-.865-.262-.942-.773-.545-.348-.545-.348-.929-.235-.232,0-.464,0-.761-.009-.742-.3-.742-.3-.957-.21,0,.06,0,.14,0,.2-.156.094-.243.145-.613-.047-.006-.051-.01-.118-.013-.168.086-.052.2-.125.281-.18a3.046,3.046,0,0,0-1.349-.635.694.694,0,0,1-.26-.067.794.794,0,0,0-.669-.109c.007.181.014.362.017.543l-.484,0a2.925,2.925,0,0,1,.01-.315c.06-.074.144-.178.205-.257l.141-.107c-.026-.047-.066-.11-.094-.156,0,0-.316-.1-.651-.228H492.5a1.482,1.482,0,0,0-.256.029c.024.387.034.565-.453.49a2.523,2.523,0,0,1,0-.29l-.01-.173a.815.815,0,0,0,.492-.095,1.581,1.581,0,0,0-.027-1.024c-.1,0-.237,0-.339,0a4.774,4.774,0,0,0-.078-.73c-.055-.212-.185-.392-.258-.6-.6-.145-.658-.309-.712-.468-.874-.345-.874-.345-.931-.378-.3-.145-.579.047-.872.032h-.2c-1.4-.274-1.4-.84-1.4-1.081-.553-.293-.553-.293-.732-.406,0-.041,0-.081-.158-.14-.276-.18-.276-.208-.266-.553a1.244,1.244,0,0,0-.2.022c-.168.052-.326.125-.5.163-.137-.129-.137-.129-.167-.482.051-.016.123-.035.173-.051.01-.047.021-.111.027-.161a1.166,1.166,0,0,0-.464-.181l-.246.213c-.02,0-.038,0-.143-.044a1.141,1.141,0,0,0-.318-.066c-.15.172-.179.413-.32.591l-.186,0c-.251-.41-.258-.413-.645-.488a4.653,4.653,0,0,1-.615-.021,2.442,2.442,0,0,0-.33-.092.41.41,0,0,0-.151-.359c-.261-.076-.468-.267-.735-.331-.042.028-.1.066-.139.1a5.612,5.612,0,0,1-.626.689,5.421,5.421,0,0,1,.143.87c-.038.035-.088.08-.122.114a1.5,1.5,0,0,1,.145-1.97l-.051-.123c-.081,0-.155,0-.285.018-.3.1-.3.133-.272.512l-.583.012c-.688.479-.688.479-1.059.481.012.234.024.466.014.729-.128.138-.128.138-.451.24,0,.49-.689.766-.424,1.341l.159.027c.031.488.641,1.023.107,1.463-.061.893-.061.893-.364.946.028.123.067.287.1.41-.078.059-.175.143-.246.208,0,.074-.009.171-.012.243-.336.121-.345.278-.282.7a.96.96,0,0,0-.368.059c.1.334.071.688.188,1.015a2.6,2.6,0,0,0,.482.016c.013.074.029.149.038.239-.024.046-.053.1-.075.15a.665.665,0,0,0-.277.164c.054.345-.2.709.061,1.043a1.391,1.391,0,0,0,.032.146c.211,1,1.415,1.217,1.692,2.161.02.083.041.164.073.262.249.327.318.762.633,1.05.609.556.587,1.9,1.742,1.752,1.068-.141,1.135,1.335,2.129,1.316.1.351.2.7.316,1.069a1.119,1.119,0,0,0,.085.321l0,.049a1.88,1.88,0,0,0,.074.189c.023.042.052.1.074.144a.573.573,0,0,1,.012.175,1.226,1.226,0,0,0,.087.331l-.006.03a.632.632,0,0,0,.1.191c.018.047.044.112.063.16l.017.055a.6.6,0,0,1,.02.243,1.259,1.259,0,0,0,.171.3c.012.031.022.063.034.094s.022.062.034.1a3.982,3.982,0,0,0,.1.993,4.918,4.918,0,0,1,.234,1.332c.008.017.021.036.082.14.679,1.115.907,1.493.752,2.028a1.744,1.744,0,0,0,.138.231c.021.046.05.105.07.152.092.117.092.117.07.726.4.389.462,1,.874,1.378.29.25.21.74.606.919l.175,0-.4-.619c.073,0,.146,0,.221,0,.045.069.091.139.14.217-.006.048-.016.115-.024.165.086.12.175.239.26.372a5.344,5.344,0,0,0,.437.7c-.094-.054-.215-.129-.306-.19l-.048-.063c-.035-.04-.082-.092-.117-.13.01.01.017.022-.051.034a.9.9,0,0,0,.2.2,1.525,1.525,0,0,1,.483.43c-.156-.053-.281-.161-.437-.213a.375.375,0,0,1,.113.2,1.558,1.558,0,0,1,.022.161c.326.2.723.284.982.591a.59.59,0,0,0-.268.154c.01.009.021.02.14.12.078.058.186.134.268.188a1.223,1.223,0,0,1,.091.136A33.441,33.441,0,0,1,465,295.823a33.7,33.7,0,0,1,.576-6.76l.1.2.078.375-.072.328.014.266.162.164.136.344.1.292-.025.36.117-.127.067-.4-.029-.444-.146-.167.023-.388-.142-.31v-.5l0-.468-.1-.34.04-.464-.05-.055c.1-.445.218-.884.339-1.323l0,.043-.11.547.068.706.126.564.146.4.091.4-.028.47.2.277.123.438.086.469.238.643.07.571.145.26-.176.227-.069.369.318.533.278.441.36.194.382.413.465.345.536.434.447.2.292-.046.09-.253.335-.076.38.292.434.506.245.424.357-.015.141-.005.207.115.239.453.463.2.009-.308.26.176c.825,1.454.825,1.454.776,1.747l.17.239.189-.126.275.169c.571.649.571.649.827.614l.721.43.39.2-.066-.478.161-.309.666.044.093.3.214-.032.092-.4-.265-.358c-.231.008-.462.012-.688.017l-.446-.018-.648-.042-.313-.263-.438-.564-.005-.461c-.009-.2-.018-.406-.024-.611l.11-.775c0-.174-.007-.348-.008-.523l-.208-.4-.4-.269-.588.082-.41-.111-.445.264-.291-.265.27-.322v-.252c0-.1,0-.2.006-.308l.11-.346.162-.559c.007-.205.017-.412.028-.618l.264-.251.066-.461-.181-.174-.632.084-.393.1-.188.436-.188.65-.2.593-.322.075-.449.2-.459.115-.2-.424-.358-.289-.108-.487-.214-.63-.059-1.084.02-.781.244-.609.175-.688-.075-.7.421-.689.275-.042.33-.361.348-.42.376.069.258.132.257-.155.135.367.354-.014.283-.041-.014-.286.18-.467.448-.043.32-.068.571.061.165.4.2-.006.164-.236.182-.064.229.34.2.425c-.023.167-.046.333-.067.5l.117.287.03.322.176.232.073.35.234.17-.016.385.225.085.166-.27.154-.421-.082-.5-.048-.759-.209-.662c.041-.29.085-.579.177-1.008.058-.138.143-.323.206-.461l.357-.635.42-.2.547-.491.505-.372.459-.205.14-.36.371-.229-.162-.6-.147-.268.162-.326-.119-.294.366-.195.18.426.26-.436.268-.377.263-.245.4-.795c.208,0,.418-.007.629-.012l.463-.266.487-.06-.045-.31.134-.642.448-.487.377-.006.191-.28.494.019.522-.281.378-.379c.854-.03.854-.03,1.133.136-.053.039-.121.088-.172.127a5.265,5.265,0,0,0-.685.039c-.435.289-.435.289-.451.65l.245.124.354-.257.25-.154.447-.132.5-.226.47-.105.44-.425.409-.3.116-.34-.5.122-.432.517-.551.029-.394-.215-.37-.363-.08-.627.48-.314.108-.5-.565-.042-.677.195-.8.415-.858.685-.634.4.313-.369.427-.394.263-.193-.467-.135c.213,0,.429-.009.646-.011l.26-.336.453-.312.436-.026.294-.378.4-.143.571-.006,1.052-.034.519.089.434-.028.5-.3.48-.411.713-.073.386-.137.231-.182-.182-.177.184-.178.1-.374-.478-.065-.042-.218-.53,0-.472.222-.319.177-.208-.086.165-.264.518-.157.6-.13.307-.216-.363-.02-.313-.169-.433-.121-.211-.251-.243-.25-.054-.225.206-.042.12-.165-.167-.382-.194-.415-.191-.715-.017-.32-.529.422c-.054.121-.1.243-.158.366l-.433.143-.347.259-.344-.013.033-.237-.148-.175-.378.084.3-.409.274-.53.132-.278-.38-.013-.184-.2-.1-.284-.272-.3-.259.145-.379-.01-.087-.1-.427.009-.314.2-.042.286-.328.388-.12.261-.079.357-.235.006-.2.349-.272.2.116.154.163.249-.168.462c-.094.176-.19.357-.283.537l-.436.382-.484.3-.492.075.019.466c-.1.2-.2.409-.3.615l-.033.354-.209.292-.374.372-.493.077-.022-.514-.094-.438c.061-.126.127-.251.19-.375l.187-.521.29-.432-.491-.066-.376-.009-.113-.143-.382-.132-.019-.244-.21-.255-.195-.27-.617.183.078-.262.254-.595-.105-.148.041-.227.648-.715.675-.532.631-.463.423-.172.434-.239.141-.241-.237-.089-.195-.155.339.067.243.105.215-.059.284-.255.177.123.229-.059.2-.2.2-.089.32-.266-.184-.025-.239-.022.052-.142-.125-.15.186.008.206.1.124.089.321-.106.394-.243.034-.181.222-.007-.041.167-.3.193-.453.358c-.14.147-.281.3-.42.449l-.333.111-.121.2.24.009c-.055.064-.111.127.017.206.06-.019.137-.045.2-.063l.306-.243.322.005.155.03.1.1c.091,0,.184-.005.279-.008l.237-.257-.221-.06.148-.313-.289-.024-.016-.237-.165-.059c.059-.059.115-.118.175-.177l.159.042.215-.131.112-.141c.084,0,.162-.005.246-.008l.292-.2.427-.205.24-.168.056-.175.2-.289.253-.047.292-.214.08-.2-.084-.1-.038-.093c.057-.021.114-.045.171-.066l.1,0,.106-.071.094-.031.142.015.034.114.26-.02.283-.059.041-.192.171-.041-.056.217.2.02-.128.213.131.037-.059.163.111.08-.091.208.153.081,0,.216-.178.265-.522.294-.483.3-.09.284-.5.073-.182-.06c-.084,0-.165.005-.248.006l-.506.251-.214.263.32.06.318-.026.19-.149.2-.087.16.047.286.108.113.365-.053.2.067.259.338-.006.158.348.536.01.277.156.143-.215-.34-.432-.131-.187.006-.2.26.183.46.322.244.189c.054-.106.1-.211.159-.315l.332-.278-.222-.165.163-.417-.328-.142-.152-.505.25-.141.237-.127.336.461.059.3.255.046.281-.354.416-.131.127-.141.231,0,.18-.156.1-.228-.448,0c.024-.039.047-.08.071-.121l-.148-.19-.164-.029-.2-.112c-.07,0-.141,0-.209,0l.051-.16.029-.141-.345.006-.126-.011c.061-.082.12-.16.185-.24l.237,0,.21-.111-.251-.076.117-.094.171-.029-.043-.155-.179-.061.219-.144-.149-.094-.274.015.074-.112-.2-.009-.057-.023.284-.114-.15-.067-.36.076.036-.187.009-.009a33.348,33.348,0,0,1,4.734-.873s.156-.012.313-.02a9.455,9.455,0,0,1,2.981-2.561,35.76,35.76,0,0,0-24.29,9.867l-.881.8-.468.466.082-.081-.161.171-.263.28-.076.1-.262.276-.123.168-.242.26-.059.094,0,.029-.262.3-.181.234A35.835,35.835,0,1,0,534.209,297.5Zm-26.348-32.79.019-.011c.222-.1.44-.2.664-.3.2-.083.4-.154.605-.233l-.015.06-.664.389-.422.281-.413.229-.05-.086Z" transform="translate(-462.613 -259.488)" fill="#535353"/>
  <path id="Path_53" data-name="Path 53" d="M886.834,259.827v7.447h17.377v27.306h9.929V268.64l-2.727-1.366h20.1v-7.447Z" transform="translate(-705.67 -259.682)" fill="#0067ac"/>
  <path id="Path_54" data-name="Path 54" d="M1036.792,259.827v13.653h-24.823V259.827h-9.93v34.753h9.93V282.292l-2.727-1.366h27.55v13.653h9.93V259.827Z" transform="translate(-771.677 -259.682)" fill="#0067ac"/>
  <g id="Group_21" data-name="Group 21" transform="translate(82.767 41.667)">
    <g id="Group_20" data-name="Group 20" transform="translate(0 0)">
      <rect id="Rectangle_5" data-name="Rectangle 5" width="1.999" height="22.674" transform="translate(0 0)" fill="#535353"/>
      <path id="Path_55" data-name="Path 55" d="M961.3,357.057H942.856v2h8.225v20.675h2V359.056H961.3Z" transform="translate(-820.536 -357.057)" fill="#535353"/>
      <path id="Path_56" data-name="Path 56" d="M694.072,380.269h-1.683l-12.025-19.8v19.257h-2V357.057h2.185l12.681,20.819,12.68-20.819H708.1v22.674h-2V360.473Z" transform="translate(-668.995 -357.057)" fill="#535353"/>
      <path id="Path_57" data-name="Path 57" d="M766.951,379.731h-2V357.057H776.81a6.933,6.933,0,0,1,0,13.866h-9.859Zm0-10.806h9.859a4.934,4.934,0,1,0,0-9.869h-9.859Z" transform="translate(-718.606 -357.057)" fill="#535353"/>
      <path id="Path_58" data-name="Path 58" d="M834.41,380.73a11.837,11.837,0,1,1,11.837-11.837A11.85,11.85,0,0,1,834.41,380.73Zm0-21.674a9.838,9.838,0,1,0,9.838,9.838A9.849,9.849,0,0,0,834.41,359.056Z" transform="translate(-751.62 -357.057)" fill="#535353"/>
      <path id="Path_59" data-name="Path 59" d="M914.672,379.024l-8.13-8.13a6.931,6.931,0,0,0-.582-13.837H894.1v22.674h2v-8.807h7.644l9.514,9.514ZM896.1,359.056h9.858a4.935,4.935,0,1,1,0,9.869H896.1Z" transform="translate(-792.603 -357.057)" fill="#535353"/>
    </g>
  </g>
</svg>
